# xmcd
#
# Track frame offsets: 
#        150
#        19926
#        34344
#        54578
#        78590
#        97707
#        118993
#        139761
#        160846
#        180016
#        205608
#        225208
#        241378
#        262222
#        283140
#        306812
#
# Disc length: 4348 seconds
#
# Revision: 1
# Processed by: cddbd v1.5.2PL0 Copyright (c) Steve Scherf et al.
# Submitted via: ExactAudioCopyFreeDBPlugin 1.0
#
DISCID=d210fa10
DTITLE=Various Artist - 试机21号
DYEAR=2010
DGENRE=Pop
TTITLE0=在心里从此永远有个你
TTITLE1=别哭我最爱的人
TTITLE2=沂蒙颂
TTITLE3=默默祝福你
TTITLE4=我是否也在你心中
TTITLE5=鱼水情歌
TTITLE6=每一句说话
TTITLE7=但愿人长久
TTITLE8=庭院深深
TTITLE9=白狐
TTITLE10=糊涂的爱
TTITLE11=再会无缘的情人
TTITLE12=送君
TTITLE13=今夜情为证
TTITLE14=雁南飞
TTITLE15=一水隔天涯
EXTD=
EXTT0=
EXTT1=
EXTT2=
EXTT3=
EXTT4=
EXTT5=
EXTT6=
EXTT7=
EXTT8=
EXTT9=
EXTT10=
EXTT11=
EXTT12=
EXTT13=
EXTT14=
EXTT15=
PLAYORDER=
